# xmcd
#
# Track frame offsets: 
#        150
#        11100
#        21975
#        35230
#        47275
#        61137
#        74212
#        87817
#        102322
#        111647
#        124800
#        139510
#        154685
#        166400
#        179227
#        194277
#        207205
#        220120
#        234277
#        249340
#
# Disc length: 3509 seconds
#
# Revision: 5
# Processed by: cddbd v1.5.2PL0 Copyright (c) Steve Scherf et al.
# Submitted via: ExactAudioCopyFreeDBPlugin 1.0
#
DISCID=230db314
DTITLE=George Strait - The Very Best Of Vol.1 (1981-1987)
DYEAR=1998
DGENRE=Country
TTITLE0=Unwound
TTITLE1=Down And Out
TTITLE2=If You're Thinking You Want A Stranger (There's One Coming Hom
TTITLE2=e)
TTITLE3=Fool Hearted Memory
TTITLE4=Marina Del Rey
TTITLE5=Amarillo By Morning
TTITLE6=A Fire I Can't Put Out
TTITLE7=You Look So Good In Love
TTITLE8=Right Or Wrong
TTITLE9=Let's Fall To Pieces Together
TTITLE10=Does Fort Worth Ever Cross Your Mind
TTITLE11=The Cowboy Rides Away
TTITLE12=The Fireman
TTITLE13=The Chair
TTITLE14=You're Something Special To Me
TTITLE15=Nobody In His Right Mind Would've Left Her
TTITLE16=It Ain't Cool To Be Crazy About You
TTITLE17=Ocean Front Property
TTITLE18=All My Ex's Live In Texas
TTITLE19=Am I Blue
EXTD=(c)1998 MCA Records Nashville - Universal\nupc 602438049127\nUMD 
EXTD=80491
EXTT0=
EXTT1=
EXTT2=
EXTT3=
EXTT4=
EXTT5=
EXTT6=
EXTT7=
EXTT8=
EXTT9=
EXTT10=
EXTT11=
EXTT12=
EXTT13=
EXTT14=
EXTT15=
EXTT16=
EXTT17=
EXTT18=
EXTT19=
PLAYORDER=
